<svg width="216" height="22" viewBox="0 0 216 22" fill="none" xmlns="http://www.w3.org/2000/svg">
<path fill-rule="evenodd" clip-rule="evenodd" d="M94.0636 17.3123H94.4467C94.7687 17.3123 95.125 17.2918 95.125 16.9063C95.125 16.5212 94.7687 16.501 94.4467 16.5068H94.0636V17.3123ZM93.5388 16.0613H94.641C95.3269 16.0613 95.6497 16.3725 95.6497 16.9268C95.6497 17.4273 95.3539 17.6708 94.9638 17.7188L95.7093 18.9349H95.1584L94.4467 17.7582H94.0636V18.9349H93.5388V16.0613ZM94.5002 19.5848C95.6358 19.5848 96.5572 18.6582 96.5572 17.5155C96.5572 16.3725 95.6358 15.4459 94.5002 15.4459C93.3645 15.4459 92.444 16.3725 92.444 17.5155C92.444 18.6582 93.3645 19.5848 94.5002 19.5848ZM94.5002 15C95.8778 15 97 16.1291 97 17.5155C97 18.9012 95.8778 20.0307 94.5002 20.0307C93.1222 20.0307 92 18.9012 92 17.5155C92 16.1291 93.1222 15 94.5002 15Z" fill="black"/>
<path fill-rule="evenodd" clip-rule="evenodd" d="M94.5688 2.27201L90.3263 13.237V19.6532H85.2861V13.237L81.3436 4.0171H78.1273V19.6532H72.7788V4.0171H68.4864V2.27201H85.8327L89.3709 10.6511L92.5551 2.27201H94.5688ZM61.9321 10.4914H60.9147V4.50629H61.9321C63.8426 4.50629 64.7964 5.50404 64.7964 7.4993C64.7964 9.49366 63.8426 10.4914 61.9321 10.4914ZM68.9327 7.35576C68.9687 5.98161 68.3854 4.39784 67.3774 3.50125C66.5052 2.72566 65.2922 2.27201 63.3456 2.27201H55.8709V19.6532H60.9147V12.3727L64.7729 19.6532H70.2478L65.8228 11.7042C68.3004 10.2756 68.888 9.02475 68.9327 7.35576ZM48.5809 17.4791H55.2675V19.6796H43.5368V2.29844H54.8059V4.49991H48.5809V9.75887H53.8127V11.9601H48.5809V17.4791ZM36.0955 9.83794H42.6263V18.7837C42.6263 18.7837 42.3362 18.8332 41.8172 19.0086C41.2795 19.19 41.2148 19.2146 40.5643 19.385C40.5643 19.385 38.2188 19.9735 36.6555 19.9735C34.0827 19.9735 32.0856 19.2016 30.6636 17.6618C29.2429 16.1197 28.5318 13.949 28.5318 11.1483C28.5318 8.42323 29.2849 6.21743 30.7928 4.53227C32.2968 2.84824 34.2711 2.08244 36.7063 2.0052C39.6257 1.91384 42.3848 3.00067 42.475 7.25368L40.2088 7.28353L40.1439 6.47786C39.8347 4.69358 39.0151 3.72523 37.2862 3.7913C35.9013 3.84394 35.1431 4.30784 34.7079 5.20123C34.1886 6.26482 34.0068 8.31204 34.0068 11.275C34.0068 14.0431 34.1957 15.9233 34.5748 16.9169C34.9512 17.9113 35.6698 18.4071 36.7321 18.4071C37.9802 18.4071 38.6043 17.7089 38.6043 16.3175V12.0385H36.0955V9.83794ZM18.3131 14.1666L20.6337 6.46191L22.7789 14.1666H18.3131ZM19.2757 2.29844L14.1995 18.6764V2.29844H9.15721V9.74543H5.04319V2.29844H0V19.6796H5.04319V11.948H9.15721V19.6796H16.6336L17.7952 15.9108H23.2754L24.3529 19.6796H29.6606L24.5937 2.29844H19.2757Z" fill="black"/>
<rect x="105" y="2" width="1" height="18" fill="black"/>
<path d="M115.501 17H116.806V8.77562C116.806 8.34038 116.791 7.98019 116.746 7.63501H116.806C116.837 7.84512 116.987 8.49046 117.122 8.85066L119.943 17H121.324L124.145 8.85066C124.28 8.49046 124.431 7.84512 124.461 7.63501H124.521C124.476 7.98019 124.461 8.34038 124.461 8.77562V17H125.766V6.34432H123.74L120.919 14.5387C120.739 15.064 120.709 15.154 120.649 15.5442H120.619C120.558 15.154 120.528 15.064 120.348 14.5387L117.527 6.34432H115.501V17ZM131.436 17.1801C133.552 17.1801 134.933 15.6943 134.933 13.248C134.933 10.8017 133.552 9.3159 131.436 9.3159C129.32 9.3159 127.939 10.8017 127.939 13.248C127.939 15.6943 129.32 17.1801 131.436 17.1801ZM131.436 16.0695C130.085 16.0695 129.29 15.109 129.29 13.248C129.29 11.387 130.085 10.4265 131.436 10.4265C132.787 10.4265 133.582 11.387 133.582 13.248C133.582 15.109 132.787 16.0695 131.436 16.0695ZM135.609 10.5466H137.004V14.7488C137.004 16.1445 137.425 17.1351 139.045 17.1351C139.526 17.1351 139.826 17.09 140.156 17V15.8294C139.901 15.8894 139.706 15.9344 139.376 15.9344C138.61 15.9344 138.28 15.5592 138.28 14.7038V10.5466H140.156V9.496H138.28V6.98966L137.004 7.52995V9.496H135.609V10.5466ZM144.553 17.1801C146.67 17.1801 148.05 15.6943 148.05 13.248C148.05 10.8017 146.67 9.3159 144.553 9.3159C142.437 9.3159 141.057 10.8017 141.057 13.248C141.057 15.6943 142.437 17.1801 144.553 17.1801ZM144.553 16.0695C143.203 16.0695 142.407 15.109 142.407 13.248C142.407 11.387 143.203 10.4265 144.553 10.4265C145.904 10.4265 146.7 11.387 146.7 13.248C146.7 15.109 145.904 16.0695 144.553 16.0695ZM151.257 11.2069V9.496H150.071V17H151.347V13.7883C151.347 12.8878 151.377 11.8823 152.097 11.1619C152.458 10.8017 152.968 10.5766 153.748 10.5766H153.808V9.33091C153.718 9.3159 153.628 9.3159 153.538 9.3159C152.398 9.3159 151.617 10.1564 151.257 11.2069ZM157.81 17.1801C159.641 17.1801 160.691 16.3096 160.691 14.8839C160.691 13.6982 160.106 12.9178 158.62 12.7527L157.419 12.6177C156.489 12.5126 156.069 12.1224 156.069 11.4771C156.069 10.7567 156.654 10.3515 157.645 10.3515C158.665 10.3515 159.28 10.9818 159.446 11.8823L160.706 11.5971C160.541 10.2164 159.385 9.3159 157.675 9.3159C155.904 9.3159 154.823 10.1714 154.823 11.5371C154.823 12.6927 155.528 13.5332 157.014 13.6982L158.23 13.8333C159.04 13.9234 159.431 14.2535 159.431 15.0039C159.431 15.7093 158.875 16.1295 157.87 16.1295C156.759 16.1295 156.054 15.5592 155.859 14.4636L154.568 14.6888C154.838 16.2946 156.024 17.1801 157.81 17.1801ZM162.734 19.9266H164.01V15.8144C164.34 16.5498 165.151 17.1801 166.306 17.1801C168.122 17.1801 169.413 15.6493 169.413 13.248C169.413 10.8767 168.197 9.3159 166.381 9.3159C165.286 9.3159 164.415 9.85619 163.935 10.8917V9.496H162.734V19.9266ZM166.006 16.0545C164.76 16.0545 163.98 15.034 163.98 13.4131V13.0529C163.98 11.432 164.79 10.4415 166.051 10.4415C167.312 10.4415 168.062 11.4771 168.062 13.248C168.062 15.0039 167.282 16.0545 166.006 16.0545ZM174.262 17.1801C176.378 17.1801 177.759 15.6943 177.759 13.248C177.759 10.8017 176.378 9.3159 174.262 9.3159C172.146 9.3159 170.765 10.8017 170.765 13.248C170.765 15.6943 172.146 17.1801 174.262 17.1801ZM174.262 16.0695C172.911 16.0695 172.116 15.109 172.116 13.248C172.116 11.387 172.911 10.4265 174.262 10.4265C175.612 10.4265 176.408 11.387 176.408 13.248C176.408 15.109 175.612 16.0695 174.262 16.0695ZM180.965 11.2069V9.496H179.78V17H181.055V13.7883C181.055 12.8878 181.085 11.8823 181.806 11.1619C182.166 10.8017 182.676 10.5766 183.457 10.5766H183.517V9.33091C183.427 9.3159 183.336 9.3159 183.246 9.3159C182.106 9.3159 181.325 10.1564 180.965 11.2069ZM184.575 10.5466H185.971V14.7488C185.971 16.1445 186.391 17.1351 188.012 17.1351C188.492 17.1351 188.792 17.09 189.123 17V15.8294C188.867 15.8894 188.672 15.9344 188.342 15.9344C187.577 15.9344 187.247 15.5592 187.247 14.7038V10.5466H189.123V9.496H187.247V6.98966L185.971 7.52995V9.496H184.575V10.5466ZM197.34 17H198.946L196.214 12.3775C198 11.9723 198.616 10.6666 198.616 9.46598C198.616 7.90515 197.88 6.34432 195.089 6.34432H191.142V17H192.567V12.5726H194.729L197.34 17ZM192.567 7.54496H194.924C196.56 7.54496 197.115 8.3704 197.115 9.46598C197.115 10.5316 196.575 11.372 194.924 11.372H192.567V7.54496ZM206.608 12.7227C206.608 10.4715 205.437 9.3159 203.411 9.3159C201.265 9.3159 200.004 10.8317 200.004 13.338C200.004 15.8144 201.28 17.1801 203.426 17.1801C204.942 17.1801 206.037 16.4597 206.563 15.094L205.512 14.6287C205.182 15.5442 204.476 16.0545 203.516 16.0545C202.18 16.0545 201.295 15.094 201.28 13.6232H206.608V12.7227ZM205.317 12.5876H201.28C201.31 11.1769 202.06 10.3214 203.381 10.3214C204.612 10.3214 205.317 11.0418 205.317 12.4226V12.5876ZM214.328 9.37594C214.538 9.37594 214.718 9.40595 214.868 9.43597V8.32538C214.703 8.28035 214.538 8.26534 214.373 8.26534C213.367 8.26534 212.812 8.86566 212.587 9.63107C212.166 9.43597 211.686 9.3159 211.116 9.3159C209.375 9.3159 208.339 10.3965 208.339 11.8523C208.339 12.5876 208.594 13.218 209.075 13.6832C208.444 13.9234 208.009 14.4336 208.009 15.184C208.009 15.7243 208.249 16.2046 208.88 16.4897C208.084 16.7449 207.664 17.3452 207.664 18.0506C207.664 19.1161 208.399 20.1067 211.041 20.1067C213.652 20.1067 214.763 19.1311 214.763 17.7204C214.763 16.3697 213.907 15.6043 212.211 15.6043H210.38C209.45 15.6043 209.135 15.2591 209.135 14.8388C209.135 14.4937 209.36 14.2385 209.675 14.1035C210.08 14.2986 210.561 14.4186 211.116 14.4186C212.857 14.4186 213.892 13.308 213.892 11.8523C213.892 11.1469 213.652 10.5316 213.202 10.0813C213.382 9.60106 213.757 9.37594 214.328 9.37594ZM211.116 13.4431C210.155 13.4431 209.54 12.7677 209.54 11.8523C209.54 10.9368 210.155 10.2914 211.116 10.2914C212.076 10.2914 212.692 10.9518 212.692 11.8673C212.692 12.7828 212.076 13.4431 211.116 13.4431ZM211.926 16.7299C212.962 16.7299 213.487 17.1051 213.487 17.8104C213.487 18.4858 213.022 19.0561 211.191 19.0561C209.84 19.0561 208.91 18.7559 208.91 17.8254C208.91 17.3752 209.165 16.94 209.705 16.6998C209.9 16.7148 210.11 16.7299 210.335 16.7299H211.926Z" fill="black"/>
</svg>